<svg id="visual" viewBox="0 0 900 600" width="900" height="600" xmlns="http://www.w3.org/2000/svg" xmlns:xlink="http://www.w3.org/1999/xlink" version="1.1"><rect x="0" y="0" width="900" height="600" fill="#001220"></rect><defs><linearGradient id="grad1_0" x1="33.3%" y1="0%" x2="100%" y2="100%"><stop offset="20%" stop-color="#001220" stop-opacity="1"></stop><stop offset="80%" stop-color="#001220" stop-opacity="1"></stop></linearGradient></defs><defs><linearGradient id="grad2_0" x1="0%" y1="0%" x2="66.7%" y2="100%"><stop offset="20%" stop-color="#001220" stop-opacity="1"></stop><stop offset="80%" stop-color="#001220" stop-opacity="1"></stop></linearGradient></defs><g transform="translate(900, 0)"><path d="M0 351.5C-37.4 324.1 -74.8 296.6 -116.7 281.8C-158.7 266.9 -205.2 264.7 -242.5 242.5C-279.9 220.4 -308.1 178.3 -324.8 134.5C-341.4 90.8 -346.5 45.4 -351.5 0L0 0Z" fill="#5dade2"></path></g><g transform="translate(0, 600)"><path d="M0 -351.5C45.8 -346.4 91.7 -341.2 134.5 -324.8C177.4 -308.4 217.2 -280.7 246.1 -246.1C274.9 -211.5 292.8 -170 308.6 -127.8C324.3 -85.7 337.9 -42.8 351.5 0L0 0Z" fill="#5dade2"></path></g></svg>