<svg id="visual" viewBox="0 0 900 600" width="900" height="600" xmlns="http://www.w3.org/2000/svg" xmlns:xlink="http://www.w3.org/1999/xlink" version="1.1"><path d="M0 440L21.5 431.7C43 423.3 86 406.7 128.8 404.7C171.7 402.7 214.3 415.3 257.2 421.3C300 427.3 343 426.7 385.8 425.2C428.7 423.7 471.3 421.3 514.2 411.7C557 402 600 385 642.8 384C685.7 383 728.3 398 771.2 407.7C814 417.3 857 421.7 878.5 423.8L900 426L900 601L878.5 601C857 601 814 601 771.2 601C728.3 601 685.7 601 642.8 601C600 601 557 601 514.2 601C471.3 601 428.7 601 385.8 601C343 601 300 601 257.2 601C214.3 601 171.7 601 128.8 601C86 601 43 601 21.5 601L0 601Z" fill="#1e567b"></path><path d="M0 469L21.5 465.7C43 462.3 86 455.7 128.8 456.7C171.7 457.7 214.3 466.3 257.2 460.5C300 454.7 343 434.3 385.8 425.5C428.7 416.7 471.3 419.3 514.2 423.7C557 428 600 434 642.8 434.7C685.7 435.3 728.3 430.7 771.2 430.5C814 430.3 857 434.7 878.5 436.8L900 439L900 601L878.5 601C857 601 814 601 771.2 601C728.3 601 685.7 601 642.8 601C600 601 557 601 514.2 601C471.3 601 428.7 601 385.8 601C343 601 300 601 257.2 601C214.3 601 171.7 601 128.8 601C86 601 43 601 21.5 601L0 601Z" fill="#2e6b94"></path><path d="M0 503L21.5 499.3C43 495.7 86 488.3 128.8 485.2C171.7 482 214.3 483 257.2 478.3C300 473.7 343 463.3 385.8 459.5C428.7 455.7 471.3 458.3 514.2 466C557 473.7 600 486.3 642.8 487.8C685.7 489.3 728.3 479.7 771.2 476.8C814 474 857 478 878.5 480L900 482L900 601L878.5 601C857 601 814 601 771.2 601C728.3 601 685.7 601 642.8 601C600 601 557 601 514.2 601C471.3 601 428.7 601 385.8 601C343 601 300 601 257.2 601C214.3 601 171.7 601 128.8 601C86 601 43 601 21.5 601L0 601Z" fill="#3e80ad"></path><path d="M0 489L21.5 488.2C43 487.3 86 485.7 128.8 493.5C171.7 501.3 214.3 518.7 257.2 524.3C300 530 343 524 385.8 519.3C428.7 514.7 471.3 511.3 514.2 512.2C557 513 600 518 642.8 523.2C685.7 528.3 728.3 533.7 771.2 536.8C814 540 857 541 878.5 541.5L900 542L900 601L878.5 601C857 601 814 601 771.2 601C728.3 601 685.7 601 642.8 601C600 601 557 601 514.2 601C471.3 601 428.7 601 385.8 601C343 601 300 601 257.2 601C214.3 601 171.7 601 128.8 601C86 601 43 601 21.5 601L0 601Z" fill="#4d96c7"></path><path d="M0 572L21.5 566.3C43 560.7 86 549.3 128.8 544.8C171.7 540.3 214.3 542.7 257.2 548C300 553.3 343 561.7 385.8 565.5C428.7 569.3 471.3 568.7 514.2 565.3C557 562 600 556 642.8 551.5C685.7 547 728.3 544 771.2 542.3C814 540.7 857 540.3 878.5 540.2L900 540L900 601L878.5 601C857 601 814 601 771.2 601C728.3 601 685.7 601 642.8 601C600 601 557 601 514.2 601C471.3 601 428.7 601 385.8 601C343 601 300 601 257.2 601C214.3 601 171.7 601 128.8 601C86 601 43 601 21.5 601L0 601Z" fill="#5dade2"></path></svg>