<svg id="visual" viewBox="0 0 900 600" width="900" height="600" xmlns="http://www.w3.org/2000/svg" xmlns:xlink="http://www.w3.org/1999/xlink" version="1.1"><path d="M0 412L129 422L257 445L386 419L514 439L643 405L771 405L900 405L900 601L771 601L643 601L514 601L386 601L257 601L129 601L0 601Z" fill="#335c78"></path><path d="M0 418L129 465L257 449L386 438L514 405L643 474L771 408L900 464L900 601L771 601L643 601L514 601L386 601L257 601L129 601L0 601Z" fill="#3d6f91"></path><path d="M0 501L129 511L257 494L386 504L514 459L643 441L771 464L900 445L900 601L771 601L643 601L514 601L386 601L257 601L129 601L0 601Z" fill="#4883ab"></path><path d="M0 505L129 534L257 490L386 502L514 505L643 518L771 530L900 536L900 601L771 601L643 601L514 601L386 601L257 601L129 601L0 601Z" fill="#5298c6"></path><path d="M0 567L129 533L257 566L386 536L514 527L643 561L771 527L900 543L900 601L771 601L643 601L514 601L386 601L257 601L129 601L0 601Z" fill="#5dade2"></path></svg>