<svg id="visual" viewBox="0 0 900 600" width="900" height="600" xmlns="http://www.w3.org/2000/svg" xmlns:xlink="http://www.w3.org/1999/xlink" version="1.1"><path d="M0 467L21.5 453.8C43 440.7 86 414.3 128.8 405.8C171.7 397.3 214.3 406.7 257.2 418.2C300 429.7 343 443.3 385.8 456.2C428.7 469 471.3 481 514.2 477.3C557 473.7 600 454.3 642.8 455.7C685.7 457 728.3 479 771.2 487.5C814 496 857 491 878.5 488.5L900 486L900 601L878.5 601C857 601 814 601 771.2 601C728.3 601 685.7 601 642.8 601C600 601 557 601 514.2 601C471.3 601 428.7 601 385.8 601C343 601 300 601 257.2 601C214.3 601 171.7 601 128.8 601C86 601 43 601 21.5 601L0 601Z" fill="#5dade2" stroke-linecap="round" stroke-linejoin="miter"></path></svg>